<?xml version="1.0" encoding="UTF-8"?>
<svg width="80px" height="80px" viewBox="0 0 80 80" version="1.1" xmlns="http://www.w3.org/2000/svg">
    <g stroke="none" stroke-width="1" fill="none" fill-rule="evenodd">
        <circle fill="#006BFF" cx="40" cy="40" r="40"></circle>
        <path d="M22,24 L58,24 C60.209,24 62,25.791 62,28 L62,56 C62,58.209 60.209,60 58,60 L22,60 C19.791,60 18,58.209 18,56 L18,28 C18,25.791 19.791,24 22,24 Z" stroke="#FFFFFF" stroke-width="2" stroke-linecap="round" stroke-linejoin="round"></path>
        <line x1="18" y1="36" x2="62" y2="36" stroke="#FFFFFF" stroke-width="2" stroke-linecap="round" stroke-linejoin="round"></line>
        <line x1="30" y1="20" x2="30" y2="28" stroke="#FFFFFF" stroke-width="2" stroke-linecap="round" stroke-linejoin="round"></line>
        <line x1="50" y1="20" x2="50" y2="28" stroke="#FFFFFF" stroke-width="2" stroke-linecap="round" stroke-linejoin="round"></line>
        <circle fill="#FFFFFF" cx="30" cy="48" r="4"></circle>
        <circle fill="#FFFFFF" cx="40" cy="48" r="4"></circle>
        <circle fill="#FFFFFF" cx="50" cy="48" r="4"></circle>
    </g>
</svg>
